<svg style="display:none">
    <symbol viewBox="0 0 48 48" xmlns="http://www.w3.org/2000/svg" id="visa">
        <g id="Icons">
            <g>
                <g>
                    <path d="M38.66391,34.9327H9.33609c-1.21976,0-2.20862-0.98886-2.20862-2.20862V15.27592     c0-1.21976,0.98886-2.20862,2.20862-2.20862h29.32782c1.21976,0,2.20862,0.98886,2.20862,2.20862v17.44817     C40.87253,33.94385,39.88367,34.9327,38.66391,34.9327z"
                          style="fill:#F9F9F9;"/>
                </g>
                <path
                        d="M16.44116,25.25841c0.00967,0.05175,0.02261,0.10284,0.06426,0.16481    c0.72131-1.82193,1.4424-3.64353,2.16252-5.46263c0.73229,0,1.45687,0,2.19894,0    c-0.03968,0.10056-0.07272,0.18905-0.10937,0.27635c-1.07485,2.56564-2.15089,5.13116-3.22346,7.69789    c-0.04109,0.09784-0.09002,0.13502-0.19971,0.13426c-0.64956-0.00576-1.29956-0.00457-1.94923-0.00065    c-0.09795,0.00087-0.13937-0.02337-0.16557-0.12535c-0.54269-2.11263-1.09464-4.22308-1.63233-6.33669"
                        style="fill:#0052CC;"/>
                <path
                        d="M13.58722,21.6064c-0.09654-0.3793-0.287-0.64141-0.6488-0.80252    c-0.59597-0.26504-1.21542-0.44975-1.84824-0.59738c-0.02772-0.00663-0.05447-0.0175-0.08164-0.02631    c0-0.01946,0-0.03848,0-0.05795c0.01946-0.15937,0.11992-0.17394,0.25982-0.17329c1.10224,0.00587,2.2046,0.00337,3.30695,0.00359    c0.54737,0,0.92287,0.30505,1.02484,0.84307c0.28211,1.4872,0.56096,2.97505,0.84101,4.46279"
                        style="fill:#FFC601;"/>
                <path
                        d="M28.39822,19.8047c0.23569,0.0387,0.4728,0.06903,0.70599,0.11926    c0.22948,0.04957,0.45539,0.11795,0.68217,0.18079c0.05479,0.01522,0.10676,0.04001,0.17101,0.06479    c-0.12165,0.56727-0.24178,1.12921-0.36213,1.69114c-0.27613-0.08708-0.5402-0.18612-0.81263-0.25243    c-0.49008-0.11904-0.99038-0.17014-1.48405-0.03729c-0.17851,0.04816-0.3581,0.14872-0.4978,0.2707    c-0.23678,0.20645-0.2371,0.50823-0.00859,0.72381c0.15568,0.14687,0.33832,0.26961,0.52313,0.37908    c0.3681,0.21754,0.75469,0.4042,1.11779,0.62956c0.48823,0.30309,0.8946,0.68979,1.05735,1.26618    c0.23656,0.83742-0.02185,1.95369-0.95428,2.62684c-0.53661,0.38713-1.14377,0.58988-1.78996,0.67272    c-1.0167,0.13056-2.01446,0.03077-2.98615-0.30277c-0.05403-0.01848-0.1061-0.04272-0.17481-0.07077    c0.12568-0.5889,0.25004-1.17334,0.37778-1.77105c0.08219,0.03555,0.15285,0.06392,0.22123,0.09654    c0.60118,0.28515,1.23509,0.4217,1.89933,0.41398c0.30483-0.00348,0.60347-0.05055,0.87851-0.1959    c0.50237-0.26526,0.56879-0.78024,0.12622-1.13051c-0.21645-0.17166-0.46519-0.30646-0.71174-0.43474    c-0.41029-0.21351-0.81601-0.42996-1.17281-0.7299c-1.01777-0.85492-0.88775-2.05001-0.33701-2.85416    c0.45323-0.66109,1.11954-1.01093,1.87683-1.20226c0.24124-0.06121,0.49204-0.08371,0.73784-0.12513    c0.03664-0.0062,0.07197-0.01881,0.10806-0.02848C27.859,19.8047,28.12872,19.8047,28.39822,19.8047z"
                        style="fill:#0052CC;"/>
                <path
                        d="M36.99157,28.05876c-0.65717,0-1.28684,0-1.93336,0c-0.0611-0.28874-0.12448-0.5777-0.1834-0.86764    c-0.06871-0.34038-0.06708-0.3406-0.41964-0.3406c-0.73621,0-1.47241,0.00196-2.20895-0.00207    c-0.10263-0.00054-0.15252,0.02892-0.18611,0.12893c-0.11079,0.32745-0.22939,0.65239-0.35279,0.97549    c-0.01739,0.04555-0.07881,0.10589-0.12045,0.10643c-0.6974,0.00652-1.39479,0.00457-2.10762,0.00457    c0.01804-0.05077,0.02956-0.09099,0.04576-0.12937c1.02549-2.44986,2.05153-4.89982,3.07822-7.34968    c0.17394-0.41529,0.49574-0.62934,0.94255-0.62999c0.57716-0.00054,1.15432-0.00022,1.75268-0.00022    C35.86215,22.65266,36.42518,25.34756,36.99157,28.05876z M34.45714,25.19536c-0.21167-1.01408-0.41866-2.00794-0.62597-3.00136    c-0.01087-0.00141-0.02152-0.00283-0.03229-0.00435c-0.36093,0.99647-0.72164,1.9925-1.08887,3.00571    C33.30195,25.19536,33.8628,25.19536,34.45714,25.19536z"
                        style="fill:#0052CC;"/>
                <path
                        d="M20.04218,28.06583c0.58173-2.71686,1.15857-5.41197,1.73539-8.10523    c0.70164,0,1.38871,0,2.09318,0c-0.05589,0.26787-0.10872,0.52574-0.16351,0.78306    c-0.50813,2.37713-1.0181,4.75382-1.52101,7.13225c-0.03218,0.1522-0.08654,0.19677-0.24188,0.19394    c-0.5726-0.01055-1.14541-0.00402-1.71822-0.00402C20.17362,28.06583,20.12132,28.06583,20.04218,28.06583z"
                        style="fill:#0052CC;"/>
                <g>
                    <path d="     M38.66391,34.9327H9.33609c-1.21976,0-2.20862-0.98886-2.20862-2.20862V15.27592c0-1.21976,0.98886-2.20862,2.20862-2.20862     h29.32782c1.21976,0,2.20862,0.98886,2.20862,2.20862v17.44817C40.87253,33.94385,39.88367,34.9327,38.66391,34.9327z"
                          style="fill:none;stroke:#303030;stroke-width:0.8;stroke-linecap:round;stroke-linejoin:round;stroke-miterlimit:10;"/>
                </g>
            </g>
        </g>
    </symbol>
    <symbol viewBox="0 0 48 48" xmlns="http://www.w3.org/2000/svg" id="paypal">
        <g>
            <g>
                <path d="M49.2,28.2h-3.4c-0.2,0-0.4,0.2-0.5,0.4l-1.4,8.8c0,0.2,0.1,0.3,0.3,0.3h1.8c0.2,0,0.3-0.1,0.3-0.3    l0.4-2.5c0-0.2,0.2-0.4,0.5-0.4h1.1c2.3,0,3.6-1.1,3.9-3.3c0.2-0.9,0-1.7-0.4-2.2C51.2,28.5,50.3,28.2,49.2,28.2 M49.6,31.5    c-0.2,1.2-1.1,1.2-2,1.2H47l0.4-2.3c0-0.1,0.1-0.2,0.3-0.2h0.2c0.6,0,1.2,0,1.5,0.4C49.6,30.7,49.6,31,49.6,31.5"
                      fill="#139AD6"/>
            </g>
            <g>
                <path d="M24.7,28.2h-3.4c-0.2,0-0.4,0.2-0.5,0.4l-1.4,8.8c0,0.2,0.1,0.3,0.3,0.3h1.6c0.2,0,0.4-0.2,0.5-0.4    l0.4-2.4c0-0.2,0.2-0.4,0.5-0.4h1.1c2.3,0,3.6-1.1,3.9-3.3c0.2-0.9,0-1.7-0.4-2.2C26.7,28.5,25.9,28.2,24.7,28.2 M25.1,31.5    c-0.2,1.2-1.1,1.2-2,1.2h-0.5l0.4-2.3c0-0.1,0.1-0.2,0.3-0.2h0.2c0.6,0,1.2,0,1.5,0.4C25.1,30.7,25.2,31,25.1,31.5"
                      fill="#263B80"/>
            </g>
            <g>
                <path d="M35,31.4h-1.6c-0.1,0-0.3,0.1-0.3,0.2L33,32.1l-0.1-0.2c-0.4-0.5-1.1-0.7-1.9-0.7c-1.8,0-3.4,1.4-3.7,3.3    c-0.2,1,0.1,1.9,0.6,2.5c0.5,0.6,1.2,0.8,2.1,0.8c1.5,0,2.3-0.9,2.3-0.9l-0.1,0.5c0,0.2,0.1,0.3,0.3,0.3h1.5    c0.2,0,0.4-0.2,0.5-0.4l0.9-5.6C35.3,31.6,35.1,31.4,35,31.4 M32.7,34.6c-0.2,0.9-0.9,1.6-1.9,1.6c-0.5,0-0.9-0.2-1.1-0.4    c-0.2-0.3-0.3-0.7-0.3-1.2c0.1-0.9,0.9-1.6,1.8-1.6c0.5,0,0.8,0.2,1.1,0.4C32.6,33.7,32.7,34.2,32.7,34.6"
                      fill="#263B80"/>
            </g>
            <g>
                <path d="M59.4,31.4h-1.6c-0.1,0-0.3,0.1-0.3,0.2l-0.1,0.5l-0.1-0.2c-0.4-0.5-1.1-0.7-1.9-0.7    c-1.8,0-3.4,1.4-3.7,3.3c-0.2,1,0.1,1.9,0.6,2.5c0.5,0.6,1.2,0.8,2.1,0.8c1.5,0,2.3-0.9,2.3-0.9l-0.1,0.5c0,0.2,0.1,0.3,0.3,0.3    h1.5c0.2,0,0.4-0.2,0.5-0.4l0.9-5.6C59.7,31.6,59.6,31.4,59.4,31.4 M57.1,34.6c-0.2,0.9-0.9,1.6-1.9,1.6c-0.5,0-0.9-0.2-1.1-0.4    c-0.2-0.3-0.3-0.7-0.3-1.2c0.1-0.9,0.9-1.6,1.8-1.6c0.5,0,0.8,0.2,1.1,0.4C57.1,33.7,57.2,34.2,57.1,34.6"
                      fill="#139AD6"/>
            </g>
            <g>
                <g>
                    <path d="M43.7,31.4h-1.7c-0.2,0-0.3,0.1-0.4,0.2L39.4,35l-1-3.2c-0.1-0.2-0.2-0.3-0.5-0.3h-1.6     c-0.2,0-0.3,0.2-0.3,0.4l1.8,5.3l-1.7,2.4c-0.1,0.2,0,0.5,0.2,0.5h1.6c0.2,0,0.3-0.1,0.4-0.2l5.5-7.9     C44.1,31.7,43.9,31.4,43.7,31.4"
                          fill="#263B80"/>
                </g>
                <g>
                    <path d="M61.3,28.5l-1.4,9c0,0.2,0.1,0.3,0.3,0.3h1.4c0.2,0,0.4-0.2,0.5-0.4l1.4-8.8c0-0.2-0.1-0.3-0.3-0.3h-1.6     C61.5,28.2,61.4,28.3,61.3,28.5"
                          fill="#139AD6"/>
                </g>
                <g>
                    <path d="M12,25.2C11.3,24.4,10,24,8.2,24h-5c-0.3,0-0.6,0.3-0.7,0.6L0.5,37.7c0,0.3,0.2,0.5,0.4,0.5H4l0.8-4.9     l0,0.2c0.1-0.3,0.4-0.6,0.7-0.6h1.5c2.9,0,5.1-1.2,5.8-4.5c0-0.1,0-0.2,0-0.3c-0.1,0-0.1,0,0,0C12.9,26.8,12.7,26,12,25.2"
                          fill="#263B80"/>
                </g>
            </g>
            <g>
                <path d="M12.7,28.1L12.7,28.1c0,0.1,0,0.2,0,0.3c-0.7,3.4-2.9,4.5-5.8,4.5H5.4c-0.3,0-0.6,0.3-0.7,0.6l-1,6.1    c0,0.2,0.1,0.4,0.4,0.4h2.6c0.3,0,0.6-0.2,0.6-0.5l0-0.1l0.5-3.1l0-0.2c0-0.3,0.3-0.5,0.6-0.5h0.4c2.5,0,4.5-1,5-4    c0.2-1.2,0.1-2.3-0.5-3C13.2,28.4,13,28.2,12.7,28.1"
                      fill="#139AD6"/>
            </g>
            <g>
                <path d="M12,27.8c-0.1,0-0.2-0.1-0.3-0.1c-0.1,0-0.2,0-0.3-0.1c-0.4-0.1-0.8-0.1-1.3-0.1H6.2c-0.1,0-0.2,0-0.3,0.1    c-0.2,0.1-0.3,0.3-0.3,0.5l-0.8,5.2l0,0.2c0.1-0.3,0.4-0.6,0.7-0.6h1.5c2.9,0,5.1-1.2,5.8-4.5c0-0.1,0-0.2,0.1-0.3    c-0.2-0.1-0.3-0.2-0.5-0.2C12.1,27.8,12.1,27.8,12,27.8"
                      fill="#232C65"/>
            </g>
        </g>
    </symbol>
    <symbol viewBox="0 0 48 48" xmlns="http://www.w3.org/2000/svg" id="sber">
        <g fill="none" fill-rule="evenodd">
            <circle cx="16" cy="16" r="16" fill="#48B254" fill-rule="nonzero"/>
            <path fill="#FFF"
                  d="M22.681 7.368l.945.858-11.932 6.812-5.776-3.325.54-1.073 5.236 2.977 10.987-6.25zM20.279 6l1.268.644-9.853 5.632-4.588-2.602.782-.938 3.806 2.172L20.28 6zm4.184 3.111l.701.939-13.47 7.697-6.505-3.701.297-1.18 6.208 3.54 12.769-7.295zm1.943 3.46c.396 1.109.594 2.27.594 3.486 0 1.216-.198 2.397-.594 3.54l-.27.725a11.142 11.142 0 01-2.348 3.486 10.85 10.85 0 01-3.51 2.307c-1.385.59-2.815.885-4.291.885-1.494 0-2.925-.295-4.293-.885a11.341 11.341 0 01-3.482-2.307 10.568 10.568 0 01-2.348-3.486c-.57-1.35-.865-2.8-.864-4.265v-.724l6.694 3.782 14.118-8.046.594 1.502z"/>
        </g>
    </symbol>
    <symbol width="32px" height="32px" viewBox="0 0 48 48" xmlns="http://www.w3.org/2000/svg" id="like">
        <path d="M21.886 5.115c3.521 0 6.376 2.855 6.376 6.376 0 1.809-0.754 3.439-1.964 4.6l-10.297 10.349-10.484-10.536c-1.1-1.146-1.778-2.699-1.778-4.413 0-3.522 2.855-6.376 6.376-6.376 2.652 0 4.925 1.62 5.886 3.924 0.961-2.304 3.234-3.924 5.886-3.924zM21.886 4.049c-2.345 0-4.499 1.089-5.886 2.884-1.386-1.795-3.54-2.884-5.886-2.884-4.104 0-7.442 3.339-7.442 7.442 0 1.928 0.737 3.758 2.075 5.152l11.253 11.309 11.053-11.108c1.46-1.402 2.275-3.308 2.275-5.352 0-4.104-3.339-7.442-7.442-7.442v0z"
              fill="inherit"/>

    </symbol>
</svg>